<svg xmlns="http://www.w3.org/2000/svg" width="24" height="24"><path style="stroke:none;fill-rule:nonzero;fill:#000;fill-opacity:1" d="M22.152 7.633c.192-.578.301-1.188.301-1.828 0-3.2-2.605-5.805-5.808-5.805a5.783 5.783 0 0 0-4.391 2.02L12 1.879 0 8.676V24h24V8.676ZM16.645.773a5.038 5.038 0 0 1 5.03 5.032 5.039 5.039 0 0 1-5.03 5.035 5.029 5.029 0 0 1-2.56-.707l-.144-.086-2.152.617.613-2.152-.082-.145a4.994 4.994 0 0 1-.707-2.562A5.038 5.038 0 0 1 16.645.773ZM11.55 3.02a5.786 5.786 0 0 0 .02 5.593l-.907 3.176 3.172-.906c.863.476 1.828.73 2.809.73a5.803 5.803 0 0 0 5.21-3.261l1.06.601L12 17.32 1.086 8.953ZM.773 9.687l8.008 6.137-8.008 6.942Zm.653 13.54 7.984-6.918L12 18.293l2.59-1.984 7.984 6.918Zm21.8-.461-8.007-6.942 8.008-6.136Zm0 0"/><path style="stroke:none;fill-rule:nonzero;fill:#000;fill-opacity:1" d="M15.734 9.969c.301.062.606.094.91.094a4.2 4.2 0 0 0 1.704-.356L18.039 9a3.503 3.503 0 0 1-2.144.21 3.472 3.472 0 0 1-2.688-2.823 3.487 3.487 0 0 1 3.754-4.05c1.582.14 2.898 1.378 3.129 2.944.058.383.05.766-.016 1.14-.097.54-.578.934-1.14.934a.353.353 0 0 1-.352-.351V5.418a1.936 1.936 0 0 0-3.871 0v.777c0 1.067.867 1.934 1.934 1.934h1.16v-.774h-1.16c-.641 0-1.16-.523-1.16-1.16v-.777a1.16 1.16 0 0 1 2.32 0v1.586c0 .621.508 1.125 1.129 1.125.937 0 1.738-.66 1.902-1.57.082-.454.09-.922.02-1.391a4.281 4.281 0 0 0-3.829-3.602 4.233 4.233 0 0 0-3.5 1.34 4.268 4.268 0 0 0-1.086 3.602 4.25 4.25 0 0 0 3.293 3.46ZM11.613 19.355h.774v.774h-.774ZM13.16 19.355h.774v.774h-.774ZM10.066 19.355h.774v.774h-.774Zm0 0"/></svg>