<?xml version="1.0" encoding="UTF-8"?>
<svg xmlns="http://www.w3.org/2000/svg" xmlns:xlink="http://www.w3.org/1999/xlink" width="24px" height="24px" viewBox="0 0 24 24" version="1.1">
<g id="surface1">
<path style=" stroke:none;fill-rule:nonzero;fill:rgb(0%,0%,0%);fill-opacity:1;" d="M 11.96875 0 C 5.359375 0 0 5.359375 0 11.96875 C 0 18.578125 5.359375 23.9375 11.96875 23.9375 C 18.578125 23.9375 23.9375 18.578125 23.9375 11.96875 C 23.9375 5.359375 18.578125 0 11.96875 0 Z M 7.484375 20.074219 L 4.121094 20.074219 L 4.121094 9.246094 L 7.484375 9.246094 Z M 5.804688 7.765625 C 4.726562 7.765625 3.851562 6.894531 3.851562 5.816406 C 3.851562 4.738281 4.726562 3.863281 5.804688 3.863281 C 6.878906 3.863281 7.753906 4.738281 7.753906 5.816406 C 7.753906 6.894531 6.878906 7.765625 5.804688 7.765625 Z M 20.085938 20.074219 L 16.726562 20.074219 L 16.726562 14.808594 C 16.726562 13.550781 16.703125 11.9375 14.976562 11.9375 C 13.226562 11.9375 12.957031 13.304688 12.957031 14.71875 L 12.957031 20.074219 L 9.59375 20.074219 L 9.59375 9.246094 L 12.820312 9.246094 L 12.820312 10.726562 L 12.867188 10.726562 C 13.316406 9.875 14.414062 8.976562 16.050781 8.976562 C 19.457031 8.976562 20.085938 11.21875 20.085938 14.136719 Z M 20.085938 20.074219 "/>
</g>
</svg>
